<svg xmlns="http://www.w3.org/2000/svg"  viewBox="0 0 72 72" width="64px" height="64px" baseProfile="basic"><path fill="#060000" d="M35.891,12.966c13.236,0,24.003,10.768,24.003,24.003S49.127,60.973,35.891,60.973	S11.888,50.205,11.888,36.969S22.656,12.966,35.891,12.966z M30.087,46.028c5.04,0,9.14-4.064,9.14-9.059	c0-1.063-0.862-1.924-1.924-1.924h-6.584c-1.063,0-1.924,0.862-1.924,1.924s0.862,1.924,1.924,1.924h4.286	c-0.779,1.923-2.69,3.286-4.918,3.286c-2.917,0-5.292-2.337-5.292-5.21c0-2.873,2.374-5.21,5.292-5.21c1.129,0,2.206,0.346,3.116,1	c0.864,0.622,2.066,0.424,2.685-0.438c0.621-0.863,0.425-2.065-0.438-2.686c-1.568-1.128-3.422-1.724-5.363-1.724	c-5.04,0-9.14,4.064-9.14,9.059S25.047,46.028,30.087,46.028z M49.062,38.99c1.07,0,1.938-0.868,1.938-1.938	c0-1.07-0.868-1.938-1.938-1.938h-0.92v-1.405c0-1.07-0.868-1.938-1.938-1.938c-1.07,0-1.938,0.868-1.938,1.938v1.405h-1.018	c-1.07,0-1.938,0.868-1.938,1.938c0,1.07,0.868,1.938,1.938,1.938h1.018v1.405c0,1.07,0.868,1.938,1.938,1.938	c1.07,0,1.938-0.868,1.938-1.938V38.99H49.062z"/></svg>